<?xml version="1.0" encoding="UTF-8" standalone="no"?>
<!DOCTYPE svg PUBLIC "-//W3C//DTD SVG 1.1//EN" "http://www.w3.org/Graphics/SVG/1.1/DTD/svg11.dtd">
<svg width="100%" height="100%" viewBox="0 0 791 791" version="1.1" xmlns="http://www.w3.org/2000/svg" xmlns:xlink="http://www.w3.org/1999/xlink" xml:space="preserve" xmlns:serif="http://www.serif.com/" style="fill-rule:evenodd;clip-rule:evenodd;stroke-linejoin:round;stroke-miterlimit:2;">
    <g transform="matrix(2.19951,0,0,2.19949,-647.074,-793.712)">
        <path d="M432.014,715.279C432.014,715.279 432.03,715.283 432.039,715.285C445.457,718.489 459.457,720.185 473.851,720.185C573.008,720.185 653.511,639.681 653.511,540.523C653.511,441.415 573.088,360.942 473.996,360.862L473.851,360.862C463.746,360.862 453.834,361.698 444.182,363.304C444.142,363.31 444.062,363.325 444.062,363.325C444.062,363.325 444.233,363.498 444.275,363.554C444.318,363.609 444.443,363.732 444.455,363.742L444.481,363.768C444.745,364.029 445.006,364.334 445.265,364.677C449.114,371.996 451.039,379.698 450.656,387.786C449.884,393.946 450.656,399.723 450.656,405.884L450.656,412.43C450.656,413.202 450.27,414.358 450.656,415.127C452.198,419.749 450.656,424.368 450.656,428.606C451.039,430.531 450.27,432.069 449.884,433.611C449.884,437.463 449.884,441.313 450.27,444.779C451.039,453.25 451.039,461.338 450.27,469.423C449.501,475.97 449.501,482.519 449.114,489.066C448.728,499.078 447.959,509.088 447.19,519.101C447.19,522.953 446.034,526.803 445.265,530.655C445.265,531.811 444.798,534.961 444.414,536.499C451.178,536.499 455.8,535.204 461.282,534.055C461.416,533.318 461.576,532.585 461.768,531.855C462.691,527.645 463.925,523.537 464.334,519.226C464.744,515.118 466.491,511.318 467.827,507.416C469.058,503.822 470.289,500.225 471.83,496.631C473.166,493.757 474.603,490.677 477.274,488.726C481.175,485.954 484.665,484.206 489.496,483.901C490.108,483.797 490.726,484.105 491.443,484.105C492.677,484.003 493.702,484.311 494.524,485.336C494.73,485.542 495.037,485.643 495.244,485.748C495.45,485.852 495.653,485.954 495.757,486.055C495.961,487.185 496.988,487.8 497.194,489.034C497.401,490.163 498.016,491.191 498.219,492.32C498.939,496.12 498.016,499.918 496.785,503.512C495.653,507.004 494.422,510.395 492.573,513.681C491.957,514.912 491.545,516.349 490.93,517.583C490.213,519.017 489.185,520.355 488.363,521.792C487.231,523.743 485.899,525.694 484.563,527.543C483.332,529.494 481.689,531.239 479.941,532.679C479.018,533.498 478.2,534.421 477.274,535.242C476.144,536.27 475.015,537.298 473.784,538.221C473.064,538.735 472.242,539.249 471.52,539.763C470.907,540.07 470.701,540.584 470.701,541.2C470.495,543.56 470.187,545.821 469.984,548.184C469.778,550.132 469.366,552.289 469.676,554.24C470.393,558.554 470.187,562.97 470.393,567.385C470.495,568.102 470.803,568.721 471.009,569.336C471.729,570.878 472.858,572.007 474.295,572.93C474.501,573.035 475.117,573.035 475.323,572.829C476.043,572.21 476.861,571.598 477.375,570.773C478.403,569.13 479.224,567.487 480.148,565.742C483.948,558.554 487.542,551.16 491.034,543.769C491.199,543.383 491.364,542.968 491.529,542.54C491.571,540.937 491.679,539.339 491.854,537.707C492.06,536.27 492.162,534.833 492.371,533.395C492.472,531.854 492.678,530.623 492.986,529.186C493.396,527.952 493.808,526.823 494.217,525.49C494.319,525.078 494.626,525.078 494.937,525.078C495.759,525.18 496.577,525.078 497.196,525.49C497.709,525.694 498.017,525.9 498.22,526.309C498.427,526.927 498.734,527.235 499.042,527.952C499.147,528.158 499.353,528.568 499.353,528.875C499.454,529.801 499.454,530.725 499.66,531.648C499.864,533.497 499.66,535.242 499.66,536.99C499.762,537.707 499.762,538.325 499.559,539.146C499.454,539.556 499.559,539.968 499.559,540.377C499.66,541.405 499.762,542.227 499.454,543.254C499.147,544.485 499.251,545.617 499.147,547.055L499.147,548.387C499.042,548.492 498.943,548.492 498.943,548.593C499.147,549.824 498.839,550.953 498.734,551.981C498.839,552.187 498.734,552.495 498.734,552.599C499.042,553.316 498.943,553.932 498.943,554.446C498.839,555.166 498.734,555.781 498.839,556.397C499.042,557.323 499.147,558.347 499.042,559.375C499.147,560.301 499.353,560.917 499.762,561.634C499.864,561.84 500.07,561.84 500.276,561.84C500.584,561.84 500.993,561.84 501.301,561.738C502.125,561.431 502.741,560.812 503.356,560.301C503.768,559.889 504.282,559.48 504.485,558.966C506.128,557.015 507.67,555.061 508.901,552.907C509.313,551.879 509.929,551.162 510.341,550.03C511.058,549.107 511.47,548.184 511.981,546.95C512.701,545.513 513.316,544.279 513.83,542.636C513.932,542.122 514.344,541.814 514.55,541.199C514.729,540.914 514.944,540.69 515.197,540.516C515.043,538.279 514.754,536.044 514.754,533.806C514.754,532.779 514.548,531.855 514.548,530.929L514.548,526.824C514.548,525.077 514.446,523.332 514.139,521.689C514.034,520.766 514.034,519.944 514.139,519.122C514.446,518.815 514.856,518.815 515.166,518.916C516.089,518.916 517.114,519.018 518.04,519.224C518.656,519.43 519.068,519.842 519.17,520.458C519.271,521.073 519.582,521.587 520.096,521.895C520.403,522.101 520.711,522.409 520.813,522.92C521.019,523.846 521.53,524.667 522.047,525.489C522.354,526.003 522.558,526.514 522.662,527.132C522.764,527.954 523.071,528.772 523.484,529.597C524.204,531.342 524.099,533.705 524.407,535.554C524.921,539.557 525.333,543.665 525.945,547.669C526.256,549.721 527.179,551.675 527.487,553.832C527.693,556.294 527.592,558.86 528.309,561.223C528.515,561.943 528.721,562.663 528.721,563.485C528.619,563.995 528.41,564.509 528.515,565.128C528.515,565.641 528.822,566.051 528.927,566.565C529.13,567.18 529.235,567.796 529.952,568.103C530.364,568.309 530.158,568.823 530.567,569.131C530.773,569.029 530.979,569.029 531.084,568.823C531.389,568.411 531.696,568.002 531.903,567.589C532.518,566.359 533.136,565.128 533.65,563.995C534.573,562.146 535.395,560.3 536.318,558.451C536.423,558.143 536.524,557.733 536.626,557.423C536.934,556.5 537.241,555.472 537.552,554.549C538.066,552.804 538.58,551.161 539.195,549.416C539.398,548.592 539.604,547.773 539.915,546.951C540.118,546.542 540.017,546.13 539.811,545.718C538.989,544.693 538.374,543.459 537.758,542.228C537.499,541.581 537.28,540.934 537.128,540.287L533.837,540.668C534.296,540.118 534.775,539.585 535.282,539.08C535.756,538.609 536.254,538.163 536.785,537.757L536.809,537.738C536.654,535.945 536.524,534.138 536.524,532.268C536.524,531.135 536.832,529.905 537.14,528.772C537.45,527.335 537.86,525.898 538.681,524.667C539.091,523.846 539.709,523.126 540.223,522.409C540.632,521.895 541.146,521.689 541.866,521.689C542.377,521.79 542.789,521.79 543.303,521.689C544.331,521.587 545.457,521.895 546.485,521.895C546.999,521.895 547.411,522.203 547.719,522.716C548.848,524.36 549.257,526.618 549.257,528.569C549.156,529.905 548.537,531.034 548.23,532.268C548.095,532.762 548,533.256 547.909,533.75L547.833,534.173C547.742,534.667 547.647,535.161 547.512,535.656C547.1,536.991 546.075,538.222 545.869,539.557C545.765,540.585 545.355,541.61 544.638,542.431C544.842,543.357 545.254,544.074 545.869,544.693C546.075,544.998 546.383,545.204 546.485,545.514C547.205,547.259 548.642,548.081 550.079,549.004C550.488,549.312 551.005,549.416 551.62,549.21C553.571,548.49 555.214,547.465 556.651,546.025C557.274,545.482 557.896,544.879 558.385,544.171C558.39,544.105 558.394,544.038 558.398,543.972C558.398,543.56 558.499,543.255 558.604,542.843C559.016,541.2 559.324,539.557 559.629,537.812C560.143,535.655 560.964,533.704 561.786,531.649C561.89,531.341 562.096,531.033 562.198,530.83C562.813,530.212 563.121,529.495 563.432,528.775C563.432,528.73 563.451,528.685 563.473,528.64L563.492,528.601C563.514,528.556 563.533,528.511 563.533,528.467C563.943,527.027 564.97,525.796 566.1,524.768C566.306,524.565 566.614,524.359 566.82,524.257C568.564,523.331 570.312,522.614 572.263,522.304C573.392,522.1 574.417,521.793 575.546,521.996C576.165,521.996 576.78,522.1 577.294,522.202C577.497,522.202 577.703,522.304 577.91,522.304C584.584,522.51 581.605,534.627 578.116,537.298C577.602,537.606 576.986,537.914 576.574,538.427C576.47,538.634 576.266,538.735 576.06,538.735C575.546,539.043 575.035,539.351 574.417,539.557C573.186,539.969 572.054,540.48 570.928,540.686C569.078,540.994 569.18,540.892 568.771,542.431C568.666,542.948 568.564,543.357 568.564,543.766C568.666,549.003 565.69,557.324 568.872,561.841C569.386,562.558 570.106,563.072 570.928,563.379C571.337,563.687 571.746,563.586 572.263,563.484C573.186,563.176 574.109,562.764 574.931,562.149C576.165,561.327 577.294,560.505 578.42,559.684C578.937,559.272 579.347,558.862 579.759,558.348C580.99,556.705 582.223,555.164 583.147,553.317C583.35,552.908 583.661,552.597 583.867,552.29C585.507,550.339 586.636,548.08 587.975,546.025C588.178,545.717 588.384,545.409 588.485,545.102C589.205,543.458 590.129,542.021 591.156,540.584C591.362,540.172 591.67,539.763 592.286,539.763C592.39,539.969 592.593,540.172 592.901,540.48C592.799,540.791 592.695,541.098 592.492,541.301C591.67,542.329 591.052,543.458 590.541,544.692C590.436,544.794 590.335,544.997 590.335,545.102C590.335,546.335 589.412,547.154 589.104,548.182C588.485,548.902 588.178,549.929 587.559,550.751C584.482,554.548 582.941,559.272 578.728,562.253C575.546,564.613 572.263,567.795 567.949,567.487C566.407,567.386 564.97,566.77 563.432,566.358C563.327,566.358 563.223,566.256 563.02,566.152C561.786,565.333 560.656,564.509 559.733,563.278C558.398,561.327 557.782,559.17 557.678,556.911C557.576,554.241 557.576,551.674 557.884,549.003C557.905,548.838 557.926,548.671 557.946,548.503C557.521,548.648 557.136,548.879 556.753,549.108C554.701,550.339 552.337,551.056 549.977,551.469C549.054,551.57 548.128,551.367 547.306,551.161C545.971,550.749 544.74,550.238 543.506,549.721C543.303,549.619 543.198,549.518 542.995,549.518C542.377,549.927 542.174,550.441 542.377,551.161C542.481,551.367 542.377,551.675 542.275,551.878C541.555,552.906 541.761,554.241 541.248,555.37C539.811,558.657 538.167,561.841 536.524,565.023C536.318,565.641 536.115,566.257 535.804,566.771C535.5,567.282 535.087,567.796 534.573,568.103C533.958,568.516 533.343,569.236 532.518,569.439C532.518,569.439 532.416,569.439 532.416,569.543C531.696,570.26 530.773,570.568 529.952,571.186C527.899,572.623 525.127,572.11 523.484,570.673C522.047,569.439 520.914,567.9 520.299,566.152C519.788,565.023 519.582,563.792 519.271,562.558C519.17,562.457 519.17,562.355 519.17,562.254C518.453,560.3 518.453,558.143 517.733,556.192C517.631,555.986 517.631,555.681 517.631,555.472C517.527,554.961 517.527,554.447 517.323,554.035C516.705,551.878 516.397,549.619 515.883,547.465C515.833,547.054 515.756,546.668 515.691,546.283C515.595,546.48 515.483,546.68 515.372,546.848C514.858,547.258 514.652,547.876 514.446,548.492C514.24,548.799 514.138,549.107 513.932,549.516C513.627,550.135 513.316,550.646 513.215,551.264C513.113,551.572 512.806,551.981 512.701,552.289C512.086,553.83 511.366,555.267 510.956,556.91L510.75,557.015C510.236,557.834 509.827,558.554 509.209,559.375C508.492,560.609 507.055,561.431 505.824,562.354C505.205,563.071 504.282,563.483 503.458,563.791C503.356,563.791 503.15,563.895 503.048,563.997C502.125,564.203 501.202,564.305 500.482,564.508C499.864,564.612 499.251,564.612 498.839,564.406C497.811,563.997 496.685,563.791 495.759,563.379C494.217,562.766 493.396,561.634 492.678,560.301C492.06,558.861 491.854,557.424 491.651,555.886C491.445,554.344 491.546,552.907 491.546,551.366C491.503,550.668 491.497,549.953 491.503,549.226C490.628,551.139 489.78,553.078 488.877,554.96C487.849,557.117 486.308,559.068 485.182,561.222C483.332,564.816 481.791,568.207 479.532,571.493C479.123,572.21 478.711,573.035 478.2,573.647C477.274,574.675 476.452,575.703 475.424,576.629C473.677,578.066 471.627,579.091 469.366,579.401C468.75,579.503 468.03,579.297 467.415,578.989C464.23,577.244 463.205,574.573 462.177,571.081C461.562,568.619 461.254,566.154 460.845,563.791C460.639,562.047 460.227,560.403 460.125,558.76C459.713,553.729 460.227,548.8 460.43,543.769C460.434,543.683 460.439,543.597 460.443,543.511C457.737,544.574 454.801,545.082 452.198,546.059C451.425,546.445 450.27,546.445 449.501,546.445C444.879,545.673 442.571,547.214 441.413,551.45C439.488,559.152 437.946,566.854 436.794,574.556C434.483,588.418 432.555,602.283 430.631,615.762C429.472,626.158 429.789,636.133 428.633,646.532C428.25,649.226 429.359,662.574 429.359,665.271C429.742,673.742 431.287,681.386 432.018,689.608L432.018,714.479C432.022,714.69 432.019,715.179 432.019,715.179C432.018,715.221 432.016,715.243 432.014,715.279ZM392.281,699.946C389.024,678.666 390.739,645.028 391.738,628.083C392.507,611.524 394.815,595.353 397.126,579.177C398.284,569.548 399.054,560.307 399.823,550.681L399.823,547.214C389.81,544.517 379.798,542.207 370.171,539.51C360.544,536.432 351.301,532.966 340.902,531.811C339.363,534.122 337.822,536.432 336.666,539.126C334.742,543.362 333.2,547.601 331.275,552.219C330.506,553.375 329.737,554.53 328.965,555.686C328.578,556.458 328.195,556.841 327.809,557.227C326.27,562.618 323.574,567.237 321.649,572.245C321.263,572.631 321.263,573.4 320.879,573.786C317.027,578.022 316.258,583.796 312.791,588.804C312.405,589.19 312.405,589.573 312.022,589.959C309.417,595.544 307.896,598.319 305.71,603.366L305.601,603.617L305.659,603.776C321.503,645.838 352.684,680.41 392.369,700.661L392.941,700.952L392.281,699.946ZM300.567,588.003C300.567,588.003 300.597,587.95 300.662,587.855L305.063,581.195C306.602,578.115 308.17,575.711 309.325,572.631C314.333,561.463 319.338,550.681 323.96,539.51C325.498,536.432 326.654,532.966 327.809,529.5C323.574,527.189 318.952,527.575 314.716,526.803C312.022,526.034 308.939,525.647 306.245,525.261C302.779,524.878 299.312,523.723 295.846,524.495C295.556,524.591 295.266,524.614 294.969,524.594L294.888,524.59L294.888,524.6C294.426,529.847 294.19,535.158 294.19,540.523C294.19,556.947 296.399,572.858 300.534,587.977L300.551,588.036L300.567,588.003ZM569.592,536.683C569.897,535.858 570.004,535.04 570.106,534.116C570.312,532.984 570.414,531.753 570.928,530.621C571.131,530.313 571.235,529.904 571.235,529.596C571.337,528.261 571.952,527.132 572.365,526.002C572.774,524.873 573.596,524.359 574.725,524.153C576.266,523.95 577.396,524.565 578.42,525.59C578.627,525.694 578.728,525.898 578.728,526.107C578.937,526.719 579.245,527.335 579.759,527.953C579.654,528.261 579.553,528.673 579.451,528.981C579.245,529.495 579.143,529.904 579.245,530.418C579.451,530.726 579.245,531.033 579.143,531.239C578.319,532.572 577.602,533.806 576.679,535.04C576.06,535.963 575.239,536.578 574.211,537.092C572.672,537.812 571.131,538.221 569.386,538.427C569.18,537.812 569.386,537.298 569.592,536.683ZM544.331,527.541C544.023,528.468 544.023,529.391 543.918,530.314C543.918,531.034 543.814,531.855 543.814,532.572C543.712,532.88 543.712,533.191 543.608,533.499C543.405,534.114 543.303,534.729 543.097,535.345C542.995,535.656 542.891,535.963 542.789,536.166C542.481,536.166 542.377,536.065 542.275,535.859L542.275,533.292C542.275,532.163 542.275,531.034 542.072,529.905C541.968,528.569 542.072,527.44 542.789,526.311C543.097,525.898 543.198,525.384 543.198,524.873C543.198,524.461 543.303,524.461 543.814,524.258C544.432,525.283 544.638,526.514 544.331,527.541ZM492.985,500.225C492.779,501.459 492.573,502.795 492.37,504.026C492.062,505.155 491.65,506.389 491.237,507.518C490.52,509.777 489.8,512.14 488.877,514.297C488.056,516.248 487.028,518.097 486.105,519.943C484.563,523.023 483.036,523.978 480.598,526.417C478.635,528.38 478.992,527.123 477.067,528.879L473.775,530.51C473.775,530.51 472.751,531.323 472.367,531.117C472.367,531.117 472.315,530.894 472.724,529.764L472.91,529.001C473.456,526.646 473.296,526.42 473.369,526.106C473.784,522.922 474.089,519.737 474.707,516.657C475.323,513.472 476.35,510.395 477.274,507.312C478.815,502.484 480.249,497.557 482.923,493.244C483.744,491.705 484.665,490.369 485.591,488.93C485.797,488.622 486.105,488.317 486.412,488.009C486.926,487.391 487.646,487.185 488.465,487.597C488.877,487.8 489.391,488.009 489.8,488.212C490.213,488.52 490.726,488.93 490.828,489.548C490.828,489.856 491.034,490.268 491.237,490.471C491.856,490.985 492.163,491.705 492.265,492.526C492.573,493.45 492.88,494.477 493.087,495.502C493.394,497.044 493.188,498.687 492.985,500.225ZM422.472,381.778C421.748,387.375 421.351,392.959 420.232,398.182C418.31,409.35 416.382,420.132 414.457,431.3C413.952,434.839 413.52,438.45 413.097,442.071L412.735,445.176C412.312,448.797 411.88,452.409 411.374,455.947C409.453,472.89 407.911,489.835 405.6,506.78C404.828,513.327 403.672,519.873 402.903,526.803C402.517,527.189 402.134,527.958 402.134,528.731C384.419,524.109 366.705,519.101 348.99,514.096C349.762,512.171 350.532,510.244 351.687,508.319C354.767,501.772 358.233,495.612 361.7,489.066C365.935,480.592 370.171,471.734 374.793,462.877C377.873,457.486 381.722,451.709 384.802,446.321C386.73,442.468 388.655,438.233 390.196,434.38C392.89,427.451 395.971,420.518 400.206,414.358C403.672,408.194 407.142,402.034 410.219,395.871C412.53,392.405 414.457,388.555 416.382,385.089C417.538,383.164 418.693,382.392 422.543,381.236L422.472,381.778ZM496.373,514.604C495.86,514.604 495.244,514.706 494.835,514.604C494.73,514.398 494.629,514.5 494.423,514.604C493.909,514.604 493.601,514.81 493.192,514.912C493.087,515.426 493.293,516.041 493.192,516.555C493.087,517.478 493.395,518.097 493.909,518.709C494.115,519.226 494.527,519.635 494.936,520.044C495.654,520.764 496.478,520.558 497.195,520.558C497.297,520.457 497.401,520.457 497.401,520.457C497.709,520.044 498.017,519.737 498.324,519.429C498.737,518.198 498.943,516.967 499.146,515.733C498.528,514.81 497.503,514.398 496.373,514.604ZM295.759,516.695C295.786,516.689 295.8,516.685 295.832,516.674C298.491,515.728 301.101,514.828 303.548,514.096C313.561,512.171 323.574,512.171 333.586,512.555L335.897,512.555C337.822,508.319 339.747,503.697 342.057,499.462C344.368,493.684 347.062,487.91 349.762,482.133C351.301,479.053 352.456,475.97 353.612,472.89C357.078,466.729 360.544,460.183 363.624,453.636C366.705,447.09 369.785,440.157 372.865,433.611C374.023,430.917 375.176,428.606 376.717,425.909C378.884,421.937 381.049,417.882 383.215,413.82L384.082,412.196C386.248,408.134 388.413,404.078 390.58,400.106C392.507,396.643 394.046,393.56 395.587,390.094C397.991,385.066 400.582,380.091 403.777,375.528C403.819,375.467 403.86,375.405 403.905,375.346C404.058,375.143 404.154,374.99 404.3,374.829C404.3,374.829 403.582,375.144 403.34,375.248C346.18,399.691 304.225,452.934 295.76,516.691C295.76,516.692 295.759,516.695 295.759,516.695Z"/>
    </g>
</svg>
